HIERARCHY
ROOT Hips
{
  OFFSET 5.80788e-005 67.184 3.4734
  CHANNELS 6 Xposition Yposition Zposition Zrotation Xrotation Yrotation
  JOINT Chest
  {
    OFFSET 0 8.7983 -4.7612
    CHANNELS 3 Zrotation Xrotation Yrotation
    JOINT Chest2
    {
      OFFSET 0 8.0291 0.4195
      CHANNELS 3 Zrotation Xrotation Yrotation
      JOINT Chest3
      {
        OFFSET 0 9.9351 -2.2114
        CHANNELS 3 Zrotation Xrotation Yrotation
        JOINT Neck
        {
          OFFSET 0 22.3885 -0.4656
          CHANNELS 3 Zrotation Xrotation Yrotation
          JOINT Head
          {
            OFFSET -0.0001 12.643 3.4389
            CHANNELS 3 Zrotation Xrotation Yrotation
            End Site
            {
              OFFSET 0.0001 17.6655 0.5274
            }
          }
        }
        JOINT LeftCollar
        {
          OFFSET 2.2603 21.606 7.4023
          CHANNELS 3 Zrotation Xrotation Yrotation
          JOINT LeftShoulder
          {
            OFFSET 13.5163 -1.1332 -5.0146
            CHANNELS 3 Zrotation Xrotation Yrotation
            JOINT LeftElbow
            {
              OFFSET -0.0995 -28.05 -0.2431
              CHANNELS 3 Zrotation Xrotation Yrotation
              JOINT LeftWrist
              {
                OFFSET 0.0679 -23.3996 -0.1402
                CHANNELS 3 Zrotation Xrotation Yrotation
                JOINT LeftFinger1
                {
                  OFFSET 0.7932 -9.069 2.5189
                  CHANNELS 3 Zrotation Xrotation Yrotation
                  JOINT LeftFinger11
                  {
                    OFFSET -0.8272 -3.3923 0.5977
                    CHANNELS 3 Zrotation Xrotation Yrotation
                    JOINT LeftFinger12
                    {
                      OFFSET -0.5649 -2.3158 0.4082
                      CHANNELS 3 Zrotation Xrotation Yrotation
                      End Site
                      {
                        OFFSET -0.4919 -1.6479 0.2673
                      }
                    }
                  }
                }
                JOINT LeftFinger2
                {
                  OFFSET 0.9159 -9.2044 0.2193
                  CHANNELS 3 Zrotation Xrotation Yrotation
                  JOINT LeftFinger21
                  {
                    OFFSET 0.0117 -4.1944 -0.0248
                    CHANNELS 3 Zrotation Xrotation Yrotation
                    JOINT LeftFinger22
                    {
                      OFFSET 0.0071 -2.3249 -0.0142
                      CHANNELS 3 Zrotation Xrotation Yrotation
                      End Site
                      {
                        OFFSET -0.1475 -2.0882 0.0028
                      }
                    }
                  }
                }
                JOINT LeftFinger3
                {
                  OFFSET 0.6113 -8.7231 -2.0637
                  CHANNELS 3 Zrotation Xrotation Yrotation
                  JOINT LeftFinger31
                  {
                    OFFSET -0.1927 -3.8059 -0.2383
                    CHANNELS 3 Zrotation Xrotation Yrotation
                    JOINT LeftFinger32
                    {
                      OFFSET -0.1091 -2.1688 -0.1362
                      CHANNELS 3 Zrotation Xrotation Yrotation
                      End Site
                      {
                        OFFSET -0.2358 -1.9176 -0.0906
                      }
                    }
                  }
                }
                JOINT LeftFinger4
                {
                  OFFSET -0.6151 -8.0947 -3.5641
                  CHANNELS 3 Zrotation Xrotation Yrotation
                  JOINT LeftFinger41
                  {
                    OFFSET -0.4882 -2.341 -0.6462
                    CHANNELS 3 Zrotation Xrotation Yrotation
                    JOINT LeftFinger42
                    {
                      OFFSET -0.3575 -1.7167 -0.4742
                      CHANNELS 3 Zrotation Xrotation Yrotation
                      End Site
                      {
                        OFFSET -0.4187 -1.5237 -0.3496
                      }
                    }
                  }
                }
                JOINT LeftFinger0
                {
                  OFFSET -1.42 -1.8761 1.4223
                  CHANNELS 3 Zrotation Xrotation Yrotation
                  JOINT LeftFinger01
                  {
                    OFFSET -1.1471 -3.4929 2.6334
                    CHANNELS 3 Zrotation Xrotation Yrotation
                    JOINT LeftFinger02
                    {
                      OFFSET -0.823 -2.3 1.6571
                      CHANNELS 3 Zrotation Xrotation Yrotation
                      End Site
                      {
                        OFFSET -0.5822 -1.6914 1.1582
                      }
                    }
                  }
                }
              }
            }
          }
        }
        JOINT RightCollar
        {
          OFFSET -2.2603 21.606 7.4023
          CHANNELS 3 Zrotation Xrotation Yrotation
          JOINT RightShoulder
          {
            OFFSET -13.5187 -1.1334 -5.0155
            CHANNELS 3 Zrotation Xrotation Yrotation
            JOINT RightElbow
            {
              OFFSET 0.0994 -28.0499 -0.2431
              CHANNELS 3 Zrotation Xrotation Yrotation
              JOINT RightWrist
              {
                OFFSET -0.0679 -23.3996 -0.1402
                CHANNELS 3 Zrotation Xrotation Yrotation
                JOINT RightFinger1
                {
                  OFFSET -0.7932 -9.0691 2.5189
                  CHANNELS 3 Zrotation Xrotation Yrotation
                  JOINT RightFinger11
                  {
                    OFFSET 0.8272 -3.3923 0.5977
                    CHANNELS 3 Zrotation Xrotation Yrotation
                    JOINT RightFinger12
                    {
                      OFFSET 0.565 -2.3158 0.4082
                      CHANNELS 3 Zrotation Xrotation Yrotation
                      End Site
                      {
                        OFFSET 0.4919 -1.6479 0.2673
                      }
                    }
                  }
                }
                JOINT RightFinger2
                {
                  OFFSET -0.916 -9.2044 0.2193
                  CHANNELS 3 Zrotation Xrotation Yrotation
                  JOINT RightFinger21
                  {
                    OFFSET -0.0117 -4.1944 -0.0248
                    CHANNELS 3 Zrotation Xrotation Yrotation
                    JOINT RightFinger22
                    {
                      OFFSET -0.0071 -2.3249 -0.0142
                      CHANNELS 3 Zrotation Xrotation Yrotation
                      End Site
                      {
                        OFFSET 0.1475 -2.0882 0.0028
                      }
                    }
                  }
                }
                JOINT RightFinger3
                {
                  OFFSET -0.6113 -8.7231 -2.0637
                  CHANNELS 3 Zrotation Xrotation Yrotation
                  JOINT RightFinger31
                  {
                    OFFSET 0.1927 -3.8059 -0.2383
                    CHANNELS 3 Zrotation Xrotation Yrotation
                    JOINT RightFinger32
                    {
                      OFFSET 0.1091 -2.1688 -0.1362
                      CHANNELS 3 Zrotation Xrotation Yrotation
                      End Site
                      {
                        OFFSET 0.2358 -1.9176 -0.0906
                      }
                    }
                  }
                }
                JOINT RightFinger4
                {
                  OFFSET 0.6151 -8.0947 -3.564
                  CHANNELS 3 Zrotation Xrotation Yrotation
                  JOINT RightFinger41
                  {
                    OFFSET 0.4882 -2.341 -0.6462
                    CHANNELS 3 Zrotation Xrotation Yrotation
                    JOINT RightFinger42
                    {
                      OFFSET 0.3574 -1.7166 -0.4742
                      CHANNELS 3 Zrotation Xrotation Yrotation
                      End Site
                      {
                        OFFSET 0.4187 -1.5237 -0.3496
                      }
                    }
                  }
                }
                JOINT RightFinger0
                {
                  OFFSET 1.4199 -1.8761 1.4221
                  CHANNELS 3 Zrotation Xrotation Yrotation
                  JOINT RightFinger01
                  {
                    OFFSET 1.1472 -3.4929 2.6336
                    CHANNELS 3 Zrotation Xrotation Yrotation
                    JOINT RightFinger02
                    {
                      OFFSET 0.8229 -2.3 1.6571
                      CHANNELS 3 Zrotation Xrotation Yrotation
                      End Site
                      {
                        OFFSET 0.5822 -1.6914 1.1582
                      }
                    }
                  }
                }
              }
            }
          }
        }
      }
    }
  }
  JOINT RightHip
  {
    OFFSET -9.412 3.9771 -0.7758
    CHANNELS 3 Zrotation Xrotation Yrotation
    JOINT RightKnee
    {
      OFFSET -0.7531 -40.938 0
      CHANNELS 3 Zrotation Xrotation Yrotation
      JOINT RightAnkle
      {
        OFFSET 0 -40.1986 0
        CHANNELS 3 Zrotation Xrotation Yrotation
        JOINT RightToe
        {
          OFFSET 0 -4.4182 9.239
          CHANNELS 3 Zrotation Xrotation Yrotation
          End Site
          {
            OFFSET 0 0 6.1981
          }
        }
      }
    }
  }
  JOINT LeftHip
  {
    OFFSET 9.4119 3.9773 -0.7758
    CHANNELS 3 Zrotation Xrotation Yrotation
    JOINT LeftKnee
    {
      OFFSET 0.7532 -40.9383 0
      CHANNELS 3 Zrotation Xrotation Yrotation
      JOINT LeftAnkle
      {
        OFFSET 0 -40.1986 0
        CHANNELS 3 Zrotation Xrotation Yrotation
        JOINT LeftToe
        {
          OFFSET 0 -4.4182 9.239
          CHANNELS 3 Zrotation Xrotation Yrotation
          End Site
          {
            OFFSET 0 0 6.1981
          }
        }
      }
    }
  }
}
MOTION
Frames:	6
Frame Time:	0.0333333
0.99947 15.8512 -0.807932 -7.92188e-015 7.35066 -180 -0.572366 14.0361 -0.0455221 -1.18917 28.0721 0.0617549 -1.18917 28.072 0.061754 3.69319e-005 -0.149034 7.1109e-006 20.447 -28.1886 12.8876 -10.8437 -10.0804 -28.758 31.5024 -55.1081 -24.1943 10.9444 -1.89231 13.6264 37.8539 -15.7904 -5.87805 -1.05934e-030 6.36111e-015 9.54166e-015 3.18055e-015 3.18055e-015 6.36111e-015 9.54166e-015 0 1.59028e-015 -1.05934e-030 6.36111e-015 9.54166e-015 -0.0128136 0.00232143 7.96062e-005 -1.27222e-014 -3.18055e-015 -3.18055e-015 -1.05934e-030 6.36111e-015 9.54166e-015 -0.0160313 0.00298973 0.000846215 -3.18055e-015 9.54166e-015 1.11319e-014 -1.05934e-030 6.36111e-015 9.54166e-015 -0.0126139 0.003136 0.00282684 -9.54166e-015 -6.36111e-015 -0 -1.05934e-030 6.36111e-015 9.54166e-015 3.18055e-015 3.18055e-015 6.36111e-015 9.54166e-015 0 1.59028e-015 9.25093 -10.1852 21.9942 -24.3045 -57.8725 32.2786 -10.4369 -1.77601 -13.8334 -32.7723 -14.2139 5.06503 -1.13822e-005 5.33764e-006 1.07995e-006 -7.90146e-006 7.93116e-006 -4.99097e-006 -3.18055e-015 3.18055e-015 3.18055e-015 -1.13822e-005 5.33764e-006 1.07995e-006 0.0129562 0.00232707 -7.60396e-005 -2.72248e-006 -7.48003e-008 3.96863e-006 -1.13822e-005 5.33764e-006 1.07995e-006 0.0163436 0.0030353 -0.000873341 -3.45811e-006 7.72852e-006 1.22994e-005 -1.13822e-005 5.33764e-006 1.07995e-006 0.0145848 0.00367729 -0.00325863 2.64834e-031 3.18055e-015 -4.77083e-015 -1.13822e-005 5.33764e-006 1.07995e-006 -7.90146e-006 7.93116e-006 -4.99097e-006 -3.18055e-015 3.18055e-015 3.18055e-015 -96.5941 -47.4351 -111.063 -167.737 66.8101 166.951 -2.11871 -17.3915 -1.29998 -3.25432e-007 2.29474e-008 -4.80643e-006 96.6185 -47.4932 111.044 167.765 66.8133 -166.979 2.0776 -17.386 1.32134 -2.22492e-006 5.27237e-006 7.61991e-006 
0.999468 16.1324 -0.845646 -7.96554e-015 7.70111 -180 -0.574365 14.2621 -0.0407769 -1.19651 28.5241 0.0752939 -1.1965 28.524 0.0752918 3.78186e-005 -0.14833 6.94682e-006 20.315 -28.0597 12.7876 -10.8564 -10.5532 -28.8577 31.5023 -55.1082 -24.1944 10.9444 -1.89218 13.6263 38.0374 -15.9717 -5.78292 1.41166e-005 8.91748e-006 1.49258e-008 -3.18055e-015 6.36111e-015 -7.95139e-015 2.1166e-006 2.12557e-006 -9.63274e-006 1.41166e-005 8.91748e-006 1.49258e-008 -0.0128341 0.00232392 8.06389e-005 -5.28432e-006 6.20149e-006 2.49911e-006 1.41166e-005 8.91748e-006 1.49258e-008 -0.0160903 0.00299406 0.00084809 -2.23698e-006 7.17042e-006 9.86333e-006 1.41166e-005 8.91748e-006 1.49258e-008 -0.0126389 0.00314234 0.00284253 -1.15874e-006 3.51863e-006 -8.90412e-006 1.41166e-005 8.91748e-006 1.49258e-008 -3.18055e-015 6.36111e-015 -7.95139e-015 2.1166e-006 2.12557e-006 -9.63274e-006 9.22369 -10.6607 22.0282 -24.3045 -57.8725 32.2785 -10.4368 -1.77608 -13.8334 -32.9865 -14.3587 4.93532 -3.18055e-015 0 -0 0 0 -3.18055e-015 -3.18055e-015 0 -1.27222e-014 -3.18055e-015 0 -0 0.0129648 0.00232065 -9.21045e-005 -9.54166e-015 9.54166e-015 1.43125e-014 -3.18055e-015 0 -0 0.0163231 0.00303676 -0.000871807 4.80422e-006 -1.71847e-006 -5.23264e-006 -3.18055e-015 0 -0 0.0145426 0.00367092 -0.00325129 -3.18055e-015 0 -7.95139e-015 -3.18055e-015 0 -0 0 0 -3.18055e-015 -3.18055e-015 0 -1.27222e-014 -95.6209 -47.5376 -109.987 -167.608 67.1092 166.849 -2.02423 -17.4914 -1.22998 -1.65175e-006 3.01105e-006 1.41e-007 95.6451 -47.5983 109.967 167.637 67.1127 -166.878 1.98116 -17.4854 1.25235 -0 -3.18055e-015 -0 
0.999467 16.414 -0.883184 -8.00928e-015 8.05153 -180 -0.576395 14.4881 -0.0360088 -1.20402 28.9759 0.0889754 -1.20402 28.9758 0.0889733 4.03111e-005 -0.147648 7.81144e-006 20.1834 -27.9305 12.688 -10.8701 -11.0259 -28.9577 31.5023 -55.1082 -24.1944 10.9444 -1.89217 13.6263 38.2215 -16.1528 -5.68706 3.18055e-015 3.18055e-015 6.36111e-015 -5.78704e-006 -3.14485e-006 4.84678e-006 5.78704e-006 3.14485e-006 -4.84678e-006 3.18055e-015 3.18055e-015 6.36111e-015 -0.0128284 0.00233437 9.13443e-005 4.93339e-006 -2.19424e-007 5.82692e-006 3.18055e-015 3.18055e-015 6.36111e-015 -0.0160626 0.00300095 0.000862358 -3.18055e-015 0 1.59028e-015 3.18055e-015 3.18055e-015 6.36111e-015 -0.0125041 0.00309296 0.0028032 8.06105e-006 1.97825e-006 -8.73634e-007 3.18055e-015 3.18055e-015 6.36111e-015 -5.78704e-006 -3.14485e-006 4.84678e-006 5.78704e-006 3.14485e-006 -4.84678e-006 9.19671 -11.1363 22.062 -24.3045 -57.8725 32.2785 -10.4368 -1.77609 -13.8334 -33.2011 -14.5029 4.80496 3.18055e-015 3.18055e-015 -3.18055e-015 -3.94538e-006 -1.65685e-006 -2.50091e-006 -3.18055e-015 3.18055e-015 6.36111e-015 3.18055e-015 3.18055e-015 -3.18055e-015 0.0129447 0.00231859 -8.19726e-005 6.36111e-015 3.18055e-015 7.95139e-015 3.18055e-015 3.18055e-015 -3.18055e-015 0.0163093 0.00303036 -0.000860113 2.62976e-006 -1.75137e-006 1.66743e-006 3.18055e-015 3.18055e-015 -3.18055e-015 0.0145828 0.00366695 -0.00325618 -4.15835e-006 2.54432e-006 2.52737e-006 3.18055e-015 3.18055e-015 -3.18055e-015 -3.94538e-006 -1.65685e-006 -2.50091e-006 -3.18055e-015 3.18055e-015 6.36111e-015 -94.6432 -47.628 -108.907 -167.475 67.4082 166.743 -1.92957 -17.5913 -1.15986 1.57847e-006 -9.4336e-007 2.46022e-006 94.6671 -47.6912 108.885 167.506 67.4119 -166.774 1.88456 -17.585 1.18321 -6.47528e-007 6.61033e-006 1.0081e-005 
0.999466 16.6958 -0.920546 -8.05309e-015 8.40193 -180 -0.578451 14.714 -0.0312189 -1.21172 29.4277 0.102803 -1.21171 29.4276 0.102801 4.13822e-005 -0.146955 7.46817e-006 20.0521 -27.8011 12.5888 -10.8846 -11.4986 -29.0579 31.5024 -55.1081 -24.1943 10.9444 -1.89232 13.6264 38.4059 -16.3335 -5.59057 4.41391e-031 -3.18055e-015 7.95139e-015 -1.38747e-006 3.26144e-006 -8.11958e-007 -6.36111e-015 -9.54166e-015 1.11319e-014 4.41391e-031 -3.18055e-015 7.95139e-015 -0.0128115 0.00232399 8.68789e-005 3.18055e-015 0 -3.18055e-015 4.41391e-031 -3.18055e-015 7.95139e-015 -0.0160434 0.00299983 0.000871809 -9.54166e-015 0 1.59028e-015 4.41391e-031 -3.18055e-015 7.95139e-015 -0.0125687 0.00311691 0.0028205 -1.27222e-014 -1.27222e-014 6.36111e-015 4.41391e-031 -3.18055e-015 7.95139e-015 -1.38747e-006 3.26144e-006 -8.11958e-007 -6.36111e-015 -9.54166e-015 1.11319e-014 9.16997 -11.6118 22.0957 -24.3045 -57.8725 32.2786 -10.4368 -1.77606 -13.8334 -33.4162 -14.6467 4.67395 2.62848e-006 1.6557e-006 1.66901e-006 -2.62848e-006 1.75497e-006 -1.66901e-006 6.36111e-015 -3.41067e-006 4.77083e-015 2.62848e-006 1.6557e-006 1.66901e-006 0.0129336 0.00231192 -8.60325e-005 -1.27222e-014 0 -3.18055e-015 2.62848e-006 1.6557e-006 1.66901e-006 0.0163394 0.00303896 -0.000879742 -1.314e-006 -3.9442e-006 -8.34585e-007 2.62848e-006 1.6557e-006 1.66901e-006 0.0145775 0.00366805 -0.00326202 -1.31401e-006 -5.16589e-006 -8.34628e-007 2.62848e-006 1.6557e-006 1.66901e-006 -2.62848e-006 1.75497e-006 -1.66901e-006 6.36111e-015 -3.41067e-006 4.77083e-015 -93.6616 -47.7063 -107.824 -167.34 67.7069 166.635 -1.83473 -17.6913 -1.08955 1.59028e-015 3.18055e-015 1.27222e-014 93.6853 -47.7719 107.799 167.372 67.7108 -166.667 1.78779 -17.6847 1.11389 2.47762e-006 -1.88681e-009 -2.11357e-007 
0.999465 16.9779 -0.957732 -8.09698e-015 8.75233 -180 -0.580537 14.9399 -0.0264063 -1.2196 29.8794 0.116779 -1.21959 29.8792 0.116777 4.36062e-005 -0.146272 7.6274e-006 19.9213 -27.6715 12.4901 -10.8999 -11.9711 -29.1585 31.5024 -55.1081 -24.1943 10.9443 -1.89234 13.6264 38.5909 -16.5139 -5.49335 1.27222e-014 6.36111e-015 3.18055e-015 6.36111e-015 0 -1.59028e-015 9.54166e-015 6.36111e-015 -1.59028e-015 1.27222e-014 6.36111e-015 3.18055e-015 -0.0128039 0.00232664 8.20549e-005 -3.52875e-006 2.45174e-006 8.81416e-006 1.27222e-014 6.36111e-015 3.18055e-015 -0.0160471 0.00299981 0.00085872 6.36111e-015 0 -1.59028e-015 1.27222e-014 6.36111e-015 3.18055e-015 -0.0125577 0.00312422 0.00282971 6.36111e-015 3.18055e-015 1.11319e-014 1.27222e-014 6.36111e-015 3.18055e-015 6.36111e-015 0 -1.59028e-015 9.54166e-015 6.36111e-015 -1.59028e-015 9.14348 -12.0873 22.1292 -24.3045 -57.8725 32.2786 -10.4368 -1.77606 -13.8334 -33.6318 -14.79 4.5423 3.18055e-015 -3.18055e-015 6.36111e-015 6.36111e-015 3.18055e-015 4.77083e-015 3.18055e-015 6.36111e-015 -0 3.18055e-015 -3.18055e-015 6.36111e-015 0.0129452 0.00232744 -8.05155e-005 3.18055e-015 9.54166e-015 -0 3.18055e-015 -3.18055e-015 6.36111e-015 0.0163282 0.00304881 -0.000866846 1.27222e-014 0 -9.54166e-015 3.18055e-015 -3.18055e-015 6.36111e-015 0.0145767 0.00367931 -0.00325703 -3.18055e-015 6.36111e-015 -3.18055e-015 3.18055e-015 -3.18055e-015 6.36111e-015 6.36111e-015 3.18055e-015 4.77083e-015 3.18055e-015 6.36111e-015 -0 -92.6768 -47.7724 -106.737 -167.2 68.0054 166.522 -1.73967 -17.7914 -1.01911 8.25924e-007 7.04587e-007 -7.03849e-008 92.6999 -47.8405 106.71 167.235 68.0095 -166.557 1.69077 -17.7845 1.04441 -1.57813e-006 4.45148e-006 -2.4618e-006 
0.999464 17.2603 -0.994738 -8.14094e-015 9.10266 -180 -0.582653 15.1657 -0.0215711 -1.22766 30.3308 0.130908 -1.22766 30.3307 0.130906 4.39569e-005 -0.145566 7.26085e-006 19.7908 -27.5417 12.3919 -10.9162 -12.4436 -29.2593 31.5022 -55.1082 -24.1944 10.9444 -1.89221 13.6263 38.7763 -16.694 -5.3954 -7.06225e-031 -6.36111e-015 -6.36111e-015 6.36111e-015 -6.36111e-015 -3.18055e-015 -3.18055e-015 -6.36111e-015 -0 -7.06225e-031 -6.36111e-015 -6.36111e-015 -0.0128188 0.00232835 7.87828e-005 3.18055e-015 0 -1.59028e-015 -7.06225e-031 -6.36111e-015 -6.36111e-015 -0.0160655 0.00299687 0.000854404 9.54166e-015 -6.36111e-015 7.95139e-015 -7.06225e-031 -6.36111e-015 -6.36111e-015 -0.0125857 0.0031169 0.00283049 1.59028e-014 3.18055e-015 -1.27222e-014 -7.06225e-031 -6.36111e-015 -6.36111e-015 6.36111e-015 -6.36111e-015 -3.18055e-015 -3.18055e-015 -6.36111e-015 -0 9.11723 -12.5627 22.1625 -24.3045 -57.8725 32.2785 -10.4368 -1.77604 -13.8334 -33.8478 -14.9328 4.41002 2.62501e-006 8.61337e-007 1.67234e-006 2.85337e-006 3.41135e-006 -3.3437e-006 -5.47838e-006 2.39907e-006 1.67136e-006 2.62501e-006 8.61337e-007 1.67234e-006 0.0129605 0.00232058 -9.86887e-005 3.93693e-006 2.17985e-006 2.50867e-006 2.62501e-006 8.61337e-007 1.67234e-006 0.0163126 0.00304098 -0.000871495 6.36111e-015 0 1.59028e-015 2.62501e-006 8.61337e-007 1.67234e-006 0.0146338 0.00370177 -0.00328258 -4.8254e-006 7.83167e-006 5.20816e-006 2.62501e-006 8.61337e-007 1.67234e-006 2.85337e-006 3.41135e-006 -3.3437e-006 -5.47838e-006 2.39907e-006 1.67136e-006 -91.6896 -47.8262 -105.649 -167.058 68.3036 166.407 -1.64441 -17.8916 -0.948503 1.65188e-006 -6.05446e-007 -1.40725e-007 91.7119 -47.8968 105.619 167.094 68.308 -166.443 1.59358 -17.8844 0.974784 5.02363e-007 -1.22743e-006 -4.87666e-006 
